<svg width="267" height="186" viewBox="0 0 267 186" fill="none" xmlns="http://www.w3.org/2000/svg">
<path d="M75.8915 120.508C68.9507 120.502 62.56 116.888 59.2007 111.069C55.8415 105.25 56.0428 98.1422 59.7266 92.5062L94.0975 39.9337C97.6279 34.2092 104.122 30.7707 111.06 30.953C117.997 31.1352 124.285 34.9094 127.483 40.8106C130.68 46.7117 130.284 53.8105 126.448 59.3514L92.0973 111.924C88.6035 117.273 82.4777 120.518 75.8915 120.508Z" fill="#FB275D"/>
<path d="M134.452 120.508C127.523 120.502 121.142 116.896 117.789 111.091C114.435 105.286 114.636 98.1953 118.314 92.5727L152.618 40.125C156.093 34.3171 162.61 30.7963 169.6 30.9509C176.589 31.1055 182.929 34.9107 186.12 40.8661C189.311 46.8215 188.841 53.9714 184.895 59.4966L150.591 111.944C147.11 117.269 141.013 120.504 134.452 120.508V120.508Z" fill="#FFCC00"/>
<path d="M191.546 120.615C202.044 120.615 210.554 112.12 210.554 101.641C210.554 91.1618 202.044 82.6667 191.546 82.6667C181.049 82.6667 172.539 91.1618 172.539 101.641C172.539 112.12 181.049 120.615 191.546 120.615Z" fill="#00CA72"/>
<g opacity="0.9">
<path d="M230.151 156.494H232.968V160.277C234.377 157.5 237.154 156.091 240.253 156.091C243.916 156.091 247.055 157.822 248.384 161.485C249.591 157.903 252.811 156.091 256.313 156.091C261.183 156.091 265.046 159.15 265.046 165.59V178.47H262.269V165.912C262.269 161.042 259.734 158.546 255.83 158.546C251.845 158.546 249.028 161.203 249.028 166.556V178.47H246.25V165.912C246.25 161.042 243.675 158.546 239.77 158.546C235.746 158.546 232.968 161.203 232.968 166.556V178.47H230.151V156.494Z" fill="black"/>
<path d="M215.938 178.791C209.659 178.791 205.071 174.243 205.071 167.481C205.071 160.679 209.78 156.171 216.059 156.171C222.338 156.171 227.047 160.679 227.047 167.481C227.047 174.243 222.257 178.791 215.938 178.791ZM207.929 167.481C207.929 172.995 211.43 176.336 215.938 176.336C220.486 176.336 224.149 172.995 224.149 167.481C224.149 161.927 220.526 158.627 216.019 158.627C211.471 158.627 207.929 161.927 207.929 167.481Z" fill="black"/>
<path d="M192.089 156.171C197.603 156.171 201.186 159.11 202.192 163.658H199.173C198.449 160.518 195.792 158.586 192.089 158.586C187.461 158.586 184.08 162.048 184.08 167.481C184.08 172.915 187.461 176.416 192.089 176.416C195.792 176.416 198.408 174.525 199.173 171.305H202.192C201.186 175.692 197.603 178.791 192.089 178.791C185.811 178.791 181.182 174.243 181.182 167.481C181.182 160.72 185.811 156.171 192.089 156.171Z" fill="black"/>
<path d="M127.987 155.689C131.368 155.689 133.743 157.218 134.95 159.19V156.011H141.832V178.469H134.95V175.29C133.702 177.262 131.328 178.791 127.987 178.791C122.473 178.791 118.126 174.284 118.126 167.2C118.126 160.116 122.473 155.689 127.987 155.689ZM125.129 167.2C125.129 170.782 127.423 172.794 130.04 172.794C132.656 172.794 134.95 170.822 134.95 167.24C134.95 163.658 132.656 161.686 130.04 161.686C127.423 161.686 125.129 163.618 125.129 167.2Z" fill="black"/>
<path d="M101.622 155.689C104.601 155.689 107.137 157.058 108.505 159.11V148.686H115.428V178.47H108.505V175.25C107.298 177.303 104.923 178.792 101.582 178.792C96.0682 178.792 91.7213 174.284 91.7213 167.2C91.7213 160.116 96.0682 155.689 101.622 155.689ZM98.7246 167.2C98.7246 170.782 101.019 172.795 103.635 172.795C106.251 172.795 108.545 170.823 108.545 167.24C108.545 163.658 106.251 161.686 103.635 161.686C101.019 161.686 98.7246 163.618 98.7246 167.2Z" fill="black"/>
<path d="M82.2995 166.274C82.2995 163.215 80.5688 161.524 77.9929 161.524C75.3365 161.524 73.646 163.215 73.646 166.274V178.469H66.7635V156.01H73.646V159.029C75.0145 157.097 77.4294 155.769 80.448 155.769C85.6803 155.769 89.1417 159.311 89.1417 165.348V178.469H82.2995V166.274Z" fill="black"/>
<path d="M52.3107 178.993C45.7099 178.993 40.7594 174.565 40.7594 167.24C40.7594 159.915 45.8307 155.488 52.4315 155.488C59.0322 155.488 64.1035 159.915 64.1035 167.24C64.1035 174.565 58.9517 178.993 52.3107 178.993ZM47.7224 167.24C47.7224 171.023 49.8555 172.835 52.3107 172.835C54.7659 172.835 57.1003 171.023 57.1003 167.24C57.1003 163.417 54.8061 161.646 52.3912 161.646C49.936 161.646 47.7224 163.417 47.7224 167.24Z" fill="black"/>
<path d="M0.315491 156.01H7.198V158.868C8.5262 157.017 10.8606 155.769 13.7585 155.769C17.1796 155.769 19.9165 157.258 21.446 159.955C22.9352 157.58 25.7123 155.769 29.0127 155.769C34.567 155.769 38.1491 159.311 38.1491 165.348V178.469H31.3069V166.274C31.3069 163.336 29.5762 161.726 27.0003 161.726C24.3439 161.726 22.6937 163.336 22.6937 166.274V178.469H15.8514V166.274C15.8514 163.336 14.1208 161.726 11.5448 161.726C8.88844 161.726 7.198 163.336 7.198 166.274V178.469H0.315491V156.01Z" fill="black"/>
<path d="M149.116 185.473H156.516L169.203 156.011H161.878L156.565 169.575L151.373 156.011H143.726L152.822 176.981L149.116 185.473Z" fill="black"/>
<path d="M176.016 174.968C176.016 176.902 174.448 178.47 172.514 178.47C170.58 178.47 169.013 176.902 169.013 174.968C169.013 173.035 170.58 171.467 172.514 171.467C174.448 171.467 176.016 173.035 176.016 174.968Z" fill="black"/>
</g>
</svg>
