<svg xmlns="http://www.w3.org/2000/svg" xmlns:xlink="http://www.w3.org/1999/xlink" id="Layer_1" x="0px" y="0px" width="630.49px" height="210.62px" viewBox="0 0 630.49 210.62" xml:space="preserve"><path fill="#07001A" d="M153.284,160.047c-1.736,3.105-3.72,6.064-5.914,8.84l11.54,11.547c-3.357,4.056-7.09,7.789-11.145,11.146 l-11.548-11.547c-2.775,2.201-5.733,4.186-8.84,5.926l6.245,15.089c-4.608,2.443-9.48,4.475-14.557,6.031l-6.248-15.084 c-3.383,0.953-6.873,1.649-10.443,2.066v16.324c-2.595,0.242-5.223,0.363-7.885,0.363c-2.653,0-5.282-0.121-7.876-0.363v-16.324 c-3.575-0.417-7.061-1.113-10.447-2.066l-6.245,15.084c-5.076-1.557-9.949-3.588-14.561-6.031l6.249-15.089 c-3.11-1.745-6.065-3.725-8.848-5.926l-11.539,11.547c-4.056-3.356-7.789-7.09-11.146-11.146l11.54-11.547 c-2.193-2.775-4.177-5.734-5.918-8.84l-15.088,6.248c-2.448-4.616-4.474-9.484-6.036-14.561H43.79 c8.702,16.709,26.159,28.126,46.282,28.181c-15.582-3.583-28.511-14.126-35.329-28.181h119.669 c-1.562,5.076-3.588,9.944-6.035,14.561L153.284,160.047z"></path><g>	<path fill="#E3AD0B" d="M181.282,139.241c0-1.724-0.037-3.281,0.027-4.834c0.013-0.319,0.323-0.797,0.612-0.913  c2.943-1.184,3.983-3.615,3.641-6.438c-0.369-3.033-1.228-6.018-2.03-8.975c-0.454-1.674-1.665-2.916-3.471-2.957  c-1.854-0.036-3.114,1.161-3.772,2.836c-1.336,3.438-2.083,7.018-1.917,10.721c0.108,2.26,1.256,3.935,3.375,4.889  c0.284,0.131,0.703,0.414,0.711,0.639c0.058,1.648,0.031,3.291,0.031,4.942h-7.169v-19.341h-13.778V95.613h-6.652v24.175h-3.565  V97.184h-3.267V68.085c-9.272,5.666-18.279,11.167-27.556,16.833V69.62c-15.065,9.268-29.887,18.382-44.983,27.671  c0-1.413,0.117-2.403-0.022-3.357c-0.275-1.818,0.536-2.808,2.043-3.726c4.824-2.931,9.55-6.018,14.331-9.021  c0.874-0.554,1.238-1.161,1.166-2.287c-0.509-8.088-0.909-16.181-1.377-24.274c-0.176-3.056-0.446-6.107-0.675-9.191H73.852  c-0.175,2.588-0.369,5.132-0.518,7.675c-0.553,9.551-1.071,19.106-1.679,28.658c-0.04,0.616-0.589,1.403-1.134,1.769  c-2.345,1.566-4.757,3.029-7.184,4.474c-0.761,0.459-1.031,0.967-1.026,1.872c0.022,15.273,0.009,30.545,0.009,45.82v1.701h-6  c-1.045-14.367-2.084-28.626-3.128-42.966H31.777c-1.026,12.32-2.047,24.639-3.074,36.958c-0.103-0.005-0.202-0.01-0.301-0.014  c0.603-12.32,1.206-24.639,1.809-36.953h-2.984c-0.751,14.354-1.494,28.631-2.245,42.93h-2.076v-26.061  c-2.075,1.238-4.046,2.489-6.099,3.602c-0.859,0.463-1.188,1.017-1.184,1.957c0.018,3.921-0.018,7.846-0.032,11.771  c-0.004,1.396,0,2.795,0,4.33c-0.67-0.046-1.147-0.077-1.76-0.121v-14.679c-1.162,0.32-2.143,0.586-3.183,0.874  c0,4.546-0.031,9.037,0.023,13.53c0.018,1.219-0.298,2.052-1.589,2.195c-0.972,0.108-1.143,0.671-1.089,1.514  c0.059,0.967,0.014,1.939,0.014,3.028H0v5.788h190.014v-5.847H181.282z M81.292,100.2h-5.266v-0.005h5.266V100.2z"></path>	<path fill="#E3AD0B" d="M81.697,34.786c2.766-0.619,3.984-2.084,4.16-5.081c2.105,0.318,3.876-0.376,5.391-2.08  c1.653,2.958,4.089,4.315,7.32,3.967c3.307-0.352,5.22-2.289,5.768-5.784c4.356,5.386,9.546,6.86,15.779,4.219  c0.423,0.766,0.787,1.51,1.221,2.205c3.043,4.851,9.247,6.663,14.62,4.307c2.444-1.075,4.26-2.821,5.496-5.156  c1.251-2.374,1.448-4.801,0.217-6.834c1.875,0.401,3.9,1.238,5.901,1.184c7.166-0.188,12.49-6.307,12.038-13.493  c-0.373-5.906-5.45-10.38-11.179-9.849c-4.766,0.444-7.229,4.24-5.617,8.668c0.088,0.23,0.155,0.469,0.234,0.716  c-2.042,0.418-2.507,0.264-3.495-1.231c-0.464-0.695-0.862-1.431-1.297-2.142c-2.261-3.73-6.567-5.458-11.137-4.479  c-4.437,0.95-7.211,3.98-7.802,8.743c-1.577-7.688-7.22-12.501-14.495-12.539c-7.684-0.038-12.944,4.725-14.757,13.443  c-2.741-2.063-5.608-2.428-8.346-0.222c-2.879,2.319-2.625,5.29-1.234,8.351c-0.527,0.158-0.975,0.284-1.419,0.431  c-4.202,1.381-5.943,5.721-3.854,9.606C76.428,33.999,79.257,35.331,81.697,34.786z"></path>	<path fill="#E3AD0B" d="M34.85,46.933c-0.929,13.945-1.858,27.837-2.787,41.795h20.604c-0.971-14.063-1.929-27.913-2.892-41.795  H34.85z"></path>	<path fill="#E3AD0B" d="M30.85,41.466h2.736c0.509-1.337-0.266-3.007,1.472-4.263v4.29h14.174c-0.198-2.467-0.459-4.753-0.532-7.04  c-0.013-0.441-0.085-0.774-0.207-1.035h3.124v-5.324H47.53c0-1.121-0.009-2.103,0.005-3.075c0.04-4.181-3.088-7.512-7.116-7.571  c-4.42-0.067-7.832,3.241-7.841,7.584v3.083h-4.402v5.302h3.114C31.142,36.137,30.998,38.789,30.85,41.466z M43.813,22.806  c-0.203-0.343-0.455-0.64-0.765-0.9C43.358,22.166,43.614,22.463,43.813,22.806z"></path>	<path fill="#E3AD0B" d="M33.243,46.945h-2.951c-0.887,13.975-1.771,27.871-2.658,41.825c1.105,0.054,1.917,0.092,2.875,0.139  C31.422,74.878,32.331,60.937,33.243,46.945z"></path>	<path fill="#E3AD0B" d="M86.753,38.583H74.084v3.972h12.933C86.924,41.178,86.845,39.943,86.753,38.583z"></path>	<path fill="#E3AD0B" d="M157.281,94.269v-0.002h0.074v-1.755c-0.251-0.243-0.5-0.688-0.765-0.698  c-1.566-0.072-3.133-0.099-4.694-0.013c-0.279,0.013-0.536,0.409-0.797,0.71c-0.049,0.054-0.094,0.104-0.14,0.149v1.606h0.224  c0,0,0,0.002,0,0.002H157.281z"></path></g><g>	<path fill="#07001A" d="M220.249,157.332v-108.8h46.72c11.093,0,19.813,2.72,26.16,8.16c6.345,5.44,9.52,12.748,9.52,21.92v1.6  c0,6.295-1.468,11.788-4.4,16.48c-2.935,4.695-7.068,8.32-12.4,10.881c-5.335,2.559-11.627,3.84-18.88,3.84h-32v45.92H220.249z   M234.968,99.572h30.88c6.933,0,12.24-1.573,15.92-4.72c3.68-3.145,5.52-7.813,5.52-14v-1.6c0-5.973-2-10.612-6-13.92  c-4-3.305-9.947-4.96-17.84-4.96h-28.48V99.572z M286.488,157.332l-37.12-50.4h15.84l38.72,50.4H286.488z"></path>	<path fill="#07001A" d="M310.329,115.731c0-8.212,1.6-15.333,4.8-21.36c3.2-6.025,7.68-10.692,13.439-14  c5.762-3.305,12.373-4.96,19.842-4.96c7.252,0,13.6,1.547,19.039,4.64c5.439,3.095,9.652,7.547,12.641,13.36  c2.984,5.815,4.48,12.719,4.48,20.719v5.441h-63.041v-10.881h51.359l-2.719,3.2c0-7.785-2-13.945-6-18.48  c-4-4.533-9.469-6.8-16.4-6.8c-6.936,0-12.48,2.32-16.641,6.96c-4.16,4.64-6.24,10.96-6.24,18.959v8.16  c0,8.428,2.266,15.096,6.801,20c4.533,4.908,10.266,7.36,17.199,7.36c5.652,0,10.105-1.28,13.361-3.841  c3.252-2.56,5.412-5.6,6.479-9.119h14.4c-1.707,7.147-5.547,12.96-11.52,17.439c-5.975,4.48-13.547,6.721-22.721,6.721  c-7.787,0-14.586-1.655-20.4-4.961c-5.814-3.305-10.295-7.92-13.439-13.84c-3.147-5.92-4.72-12.879-4.72-20.879V115.731z"></path>	<path fill="#07001A" d="M397.207,157.332v-80h13.76v16h-1.76c2.666-5.76,6.346-10.185,11.041-13.28  c4.691-3.093,10.184-4.64,16.479-4.64c5.441,0,10.346,1.175,14.721,3.52c4.373,2.347,7.865,5.867,10.48,10.56  c2.611,4.695,3.92,10.667,3.92,17.92v49.92h-14.4v-48.641c0-6.72-1.654-12.025-4.959-15.92c-3.309-3.893-7.789-5.84-13.441-5.84  c-6.295,0-11.439,2.375-15.439,7.12c-4,4.747-6,10.747-6,18v45.28H397.207z"></path>	<path fill="#07001A" d="M499.768,157.332l-28-80h15.201l25.279,76.799h-2.561l25.121-76.799h14.561l-27.842,80H499.768z"></path>	<path fill="#07001A" d="M629.689,119.572c0,8.107-1.627,15.146-4.881,21.119c-3.254,5.975-7.787,10.561-13.6,13.76  c-5.814,3.2-12.561,4.801-20.24,4.801s-14.428-1.601-20.24-4.801c-5.814-3.199-10.348-7.732-13.6-13.6  c-3.254-5.865-4.879-12.745-4.879-20.641v-4.479c0-8.212,1.652-15.333,4.959-21.36c3.305-6.025,7.865-10.692,13.68-14  c5.813-3.305,12.506-4.96,20.08-4.96c7.68,0,14.426,1.627,20.24,4.88c5.813,3.255,10.346,7.868,13.6,13.84  c3.254,5.975,4.881,12.96,4.881,20.96V119.572z M566.809,119.572c0,9.174,2.24,16.159,6.721,20.959  c4.48,4.801,10.293,7.2,17.439,7.2c7.254,0,13.094-2.399,17.521-7.2c4.424-4.8,6.639-11.572,6.639-20.32v-4.479  c0-9.173-2.24-16.265-6.719-21.28c-4.48-5.013-10.295-7.52-17.441-7.52s-12.959,2.48-17.439,7.44s-6.721,11.868-6.721,20.72  V119.572z"></path></g><g></g><g></g><g></g><g></g><g></g><g></g></svg>